<svg xmlns="http://www.w3.org/2000/svg"
     width="0.266667in" height="0.266667in"
     viewBox="0 0 24 24">
  <path 
        fill="none" stroke="black" stroke-width="1"
        d="M 1.00,1.00
           C 1.00,1.00 23.00,1.00 23.00,1.00
             23.00,1.00 23.00,23.00 23.00,23.00
             23.00,23.00 1.00,23.00 1.00,23.00
             1.00,23.00 1.00,1.00 1.00,1.00 Z
           M 12.00,5.38
           C 13.62,5.38 15.62,9.59 13.64,9.59
             13.64,9.59 16.79,6.44 16.79,6.44
             17.45,2.09 14.97,1.00 12.00,1.00
             7.70,1.00 3.99,3.47 2.18,7.07
             2.18,7.07 5.84,9.91 5.84,9.91
             6.71,7.31 9.14,5.38 12.00,5.38 Z
           M 5.84,14.09
           C 5.62,13.43 5.49,12.73 5.49,12.00
             5.49,11.27 5.36,10.22 3.40,10.22
             3.40,10.22 3.40,7.07 3.40,7.07
             3.40,7.07 2.18,7.07 2.18,7.07
             1.43,8.55 1.00,10.22 1.00,12.00
             1.00,13.78 1.43,15.45 2.18,16.93
             2.18,16.93 5.03,13.90 5.03,13.90
             5.03,13.90 4.41,13.90 4.41,13.90
             4.41,13.90 5.84,14.09 5.84,14.09 Z
           M 12.00,23.00
           C 14.97,23.00 17.46,22.02 19.28,20.34
             19.28,20.34 15.71,17.57 15.71,17.57
             14.07,15.34 16.77,13.86 16.77,14.71
             16.77,9.42 14.84,8.55 12.24,8.55
             12.24,8.55 2.18,8.55 2.18,8.55
             2.18,8.55 2.18,11.39 2.18,11.39
             3.99,20.53 7.70,23.00 12.00,23.00 Z
           M 22.56,12.25
           C 22.56,11.47 22.49,10.72 22.36,10.00
             22.36,10.00 12.00,10.00 12.00,10.00
             12.00,10.00 12.00,14.26 12.00,14.26
             12.00,14.26 17.92,14.26 17.92,14.26
             17.66,15.63 16.88,16.79 15.71,17.57
             15.71,17.57 15.71,20.34 15.71,20.34
             15.71,20.34 19.28,20.34 19.28,20.34
             21.36,18.42 22.56,15.60 22.56,12.25
             22.56,12.25 22.56,12.25 22.56,12.25 Z" />
</svg>