<?xml version="1.0" encoding="utf-8"?>
<!-- Generator: Adobe Illustrator 15.0.0, SVG Export Plug-In . SVG Version: 6.00 Build 0)  -->
<!DOCTYPE svg PUBLIC "-//W3C//DTD SVG 1.1//EN" "http://www.w3.org/Graphics/SVG/1.1/DTD/svg11.dtd">
<svg version="1.1" xmlns="http://www.w3.org/2000/svg" xmlns:xlink="http://www.w3.org/1999/xlink" x="0px" y="0px" width="720px"
	 height="720px" viewBox="0 0 720 720" enable-background="new 0 0 720 720" xml:space="preserve">
<g id="Layer_7">
	<g>
		<path d="M259.612,326.065h15.105v5.193c5.257-4.5,11.184-6.751,17.779-6.751c7.575,0,13.479,2.059,17.712,6.174
			c3.653,3.501,5.48,9.213,5.48,17.137v34.446h-15.105v-31.349c0-5.532-0.892-9.354-2.673-11.468
			c-1.738-2.151-4.902-3.228-9.491-3.228c-4.991,0-8.534,1.422-10.627,4.265c-2.05,2.805-3.075,7.703-3.075,14.695v27.084h-15.105
			L218.25,382.5l-0.541-11.541L259.612,371V326.065z"/>
		<path d="M387.963,357.222h-44.414c0.382,4.616,2.036,8.29,4.963,11.021c2.926,2.692,6.68,4.039,11.263,4.039
			c3.562,0,6.511-0.77,8.843-2.309c2.29-1.538,4.899-4.385,7.827-8.539l12.09,6.116c-1.868,2.885-3.84,5.356-5.918,7.414
			c-2.079,2.059-4.307,3.75-6.681,5.077c-2.376,1.327-4.942,2.298-7.7,2.914c-2.757,0.615-5.749,0.923-8.971,0.923
			c-9.248,0-16.671-2.691-22.27-8.077c-5.599-5.424-8.399-12.616-8.399-21.58c0-8.886,2.714-16.079,8.145-21.58
			c5.472-5.424,12.726-8.136,21.76-8.136c9.12,0,16.331,2.635,21.633,7.905c5.26,5.232,7.891,12.483,7.891,21.752L387.963,357.222z
			 M373.265,346.605c-1.995-6.924-6.81-10.386-14.444-10.386c-1.74,0-3.373,0.241-4.899,0.721c-1.527,0.481-2.917,1.174-4.168,2.077
			c-1.251,0.904-2.322,1.991-3.213,3.26c-0.891,1.27-1.569,2.712-2.036,4.327H373.265z"/>
		<path d="M446.774,335.643l-13.77,5.712c-2.172-3.423-4.861-5.135-8.068-5.135c-1.531,0-2.84,0.394-3.925,1.182
			c-1.086,0.788-1.629,1.796-1.629,3.024c0,2.152,3.209,4.284,9.625,6.397c8.834,2.959,14.78,5.686,17.841,8.184
			c3.061,2.497,4.591,5.859,4.591,10.084c0,5.418-2.566,9.951-7.699,13.601c-4.985,3.459-11.008,5.187-18.063,5.187
			c-12.094,0-20.655-4.596-25.689-13.79l14.214-5.135c1.973,2.692,3.479,4.405,4.516,5.135c2.023,1.463,4.441,2.193,7.255,2.193
			c5.626,0,8.439-2,8.439-6.001c0-2.309-2.171-4.462-6.515-6.462c-1.678-0.654-3.356-1.289-5.033-1.904
			c-1.679-0.615-3.382-1.25-5.108-1.904c-4.838-1.847-8.243-3.693-10.216-5.539c-2.518-2.346-3.777-5.366-3.777-9.059
			c0-4.884,2.148-8.923,6.442-12.117c4.391-3.192,9.722-4.789,15.99-4.789C435.424,324.507,442.283,328.22,446.774,335.643z"/>
		<path d="M482.446,338.182v44.082h-15.038v-44.082h-6.417v-12.117h6.417v-20.599h15.038v20.599h73.888l-4.667,12.117H482.446z"/>
	</g>
</g>
<g id="Layer_5">
	<g>
		<path fill="#F47521" d="M263.872,499.501C536.202,649.271,700.338,212.587,392,180.069
			C598.657,210.992,556.373,579.866,263.872,499.501z"/>
		<path fill="#F47521" d="M521.881,433.046c0,0,10.869,15.949,5.229,23.354c-8.264,10.838-14.614,38.168-14.614,38.168l7.762-6.207
			c0,0,6.106-28.146,9.438-22.461c2.901,4.946-4.674,14.438-4.674,14.438l8.919-5.144c0,0,3.9-9.534,4.4-21.731
			c0.501-12.197-9.585-27.313-9.585-27.313L521.881,433.046z"/>
		<path fill="#F47521" d="M503.5,421c0,0-43.838,39.805-61,27.5l10,8.5l48.5-17.5L503.5,421z"/>
		<path fill="#F47521" d="M496.433,238.539c-7.498,4.208-5.119,25.438-5.119,25.438l-4.923-1.98l-2.752-34.816
			C483.639,227.18,501.932,235.454,496.433,238.539z"/>
		<path fill="#F47521" d="M545.228,304.614c8.582,1.432,28.949,32.459,28.949,32.459l4.108-7.202l-31.113-43.739
			C547.172,286.133,536.646,303.181,545.228,304.614z"/>
	</g>
	<g>
		<path fill="#00A79D" d="M487.152,190.361C200.571,44.813,36.082,485.153,358.414,512.603
			C142.235,485.056,180.603,114.7,487.152,190.361z"/>
		<path fill="#00A79D" d="M308.776,195.737c0,0-8.348,11.446,6.425,25.229c14.771,13.782,23.548,23.135,23.548,23.135l-2.911,6.73
			c0,0-21.643-24.895-26.16-20.486c-1.929,1.882-1.483,15.128-2.598,21.051l-5.38,8.51l2.033-33.675l-6.929-22.178L308.776,195.737z
			"/>
		<path fill="#00A79D" d="M218.918,389.432c3.576,5.066,29.919,27.322,29.919,27.322l-5.944,1.256l-18.401-11.548L218.918,389.432z"
			/>
		<polygon fill="#00A79D" points="225.384,449.128 224.644,477.646 216.128,467.733 212,433.939 		"/>
		<path fill="#00A79D" d="M227.794,264.573c13.653-10.592-33.968,13.182-35.088,65.355l-3.5-10.87l4.028-19.025l-31.834,32.33
			l6.1-12.864c0,0,40.682-39.389,41.377-49.998c0.29-4.427-19.63,1.23-19.63,1.23l7.46-7.718c0,0,4.728-1.902,18.485-4.998
			c13.756-3.099,29.175-21.583,29.175-21.583L227.794,264.573z"/>
	</g>
</g>
<g id="Layer_3">
	<g>
		<path d="M457.334,143.999c-341-100-427,425-72,386C145.334,545.999,109.334,125.999,457.334,143.999z"/>
		<path d="M272.496,545.939c351.801,109.705,457.015-413.113,86.84-384.271C609.311,152.532,633.828,573.875,272.496,545.939z"/>
		<path d="M180.189,280.666c0,0-15.874-15.065-11.189-24.666c6.855-14.048,7.816-45.952,7.816-45.952l-7.341,8.787
			c0,0-0.502,32.747-5.548,27.246c-4.394-4.791-4.514-47.749-4.514-47.749l-6.141,7.397c0,0,1.527,42.602,3.728,56.271
			c2.201,13.668,17,28,17,28L180.189,280.666z"/>
		<polygon points="187,435 176,392 174,403 194,467 		"/>
		<path d="M207.646,261.604c0,0,48.226-33.276,70.363-23.792l-6.932-9.338l-46.8,11.391L207.646,261.604z"/>
		<path d="M473.5,507c0,0,7.31-14.329-12-27c-19.309-12.671-31-21.5-31-21.5l2.036-8.057c0,0,27.507,23.317,31.798,17.558
			c1.832-2.459,0.513-16.676,0.666-23.501l4.5-10.5l4,38l12,23.5L473.5,507z"/>
		<path d="M539,274c-5-5-39-25-39-25l6.5-2.5l23,9.5L539,274z"/>
		<polygon points="520.5,208.5 516,176.5 527.5,186 538.5,223 		"/>
		<path d="M247.668,481.335C255.168,474.835,253,461,253,461l6.001,4.002l4,30.333C263.001,495.335,242.166,486.103,247.668,481.335
			z"/>
		<path d="M574.5,407c-13.479,14.356,36-21,27.5-79.5l6,11.5l-1,22l30-42l-4.5,15.5c0,0-38.698,51.519-37.5,63.5c0.5,5,22-5,22-5
			l-7,10c0,0-5,3-20,9s-29,29.5-29,29.5L574.5,407z"/>
		<path d="M183,429c-10,0.5-40-29-40-29l-3,9l45,41C185,450,193,428.5,183,429z"/>
	</g>
</g>
</svg>
